<svg version="1.1" id="Layer_1" xmlns="http://www.w3.org/2000/svg" xmlns:xlink="http://www.w3.org/1999/xlink" x="0px" y="0px"
	 width="300" height="90" viewBox="0 0 2000 1500" enable-background="new 0 0 2000 1500" xml:space="preserve">
<path fill="#111111" opacity="1.000000" stroke="none" 
	d="
M1448.000000,1501.000000 
	C965.333496,1501.000000 483.166962,1501.000000 1.000323,1501.000000 
	C1.000216,1001.000305 1.000216,501.000580 1.000108,1.000659 
	C667.666199,1.000439 1334.332397,1.000439 2000.998901,1.000220 
	C2000.999268,500.999359 2000.999268,1000.998718 2000.999634,1500.999023 
	C1816.833374,1501.000000 1632.666626,1501.000000 1448.000000,1501.000000 
M599.938416,575.734802 
	C600.030396,575.723633 600.122437,575.712524 599.864258,576.450134 
	C603.162292,583.340393 603.506287,590.471008 601.914612,597.870483 
	C598.145142,615.394836 587.368225,624.329590 571.012146,621.754944 
	C564.009399,620.652649 556.946838,617.644836 550.789001,614.014343 
	C542.284973,609.000732 539.135559,600.498657 540.725769,590.765442 
	C542.618103,579.182556 547.489075,569.148621 558.005859,562.251343 
	C552.394226,560.278748 547.151611,558.641785 542.084595,556.574280 
	C539.232361,555.410400 537.547363,556.056946 535.719177,558.362732 
	C529.462280,566.254211 525.997498,575.352844 523.982910,585.049011 
	C520.896423,599.904053 523.080261,613.570862 533.945679,624.941895 
	C542.162842,633.541504 552.603088,638.231628 563.967407,640.784119 
	C597.318604,648.275085 625.913269,619.813965 618.779602,586.254822 
	C618.365295,584.306274 616.844971,581.805908 615.171997,581.060791 
	C610.345764,578.911072 605.177734,577.528503 599.938416,575.734802 
M1132.698608,360.353638 
	C1134.197510,354.278625 1135.696533,348.203613 1137.399170,341.302917 
	C1125.475220,348.479248 1114.023193,347.694244 1102.558838,343.127106 
	C1094.708496,339.999695 1089.708862,333.970917 1088.328979,325.749115 
	C1086.476807,314.712982 1088.558472,304.154694 1094.822021,294.732635 
	C1098.947144,288.527557 1104.987305,285.108490 1112.453125,284.923218 
	C1125.296875,284.604462 1136.578125,288.473022 1145.612427,298.652130 
	C1146.957153,292.835052 1148.012451,287.324646 1149.559937,281.956085 
	C1150.391113,279.072449 1149.533203,277.323547 1147.088867,276.375854 
	C1139.852295,273.570343 1132.737671,270.009094 1125.221436,268.456024 
	C1108.476318,264.996002 1092.647339,267.438293 1081.173096,281.463593 
	C1068.972290,296.376984 1064.871826,313.875519 1069.755981,332.582703 
	C1075.791992,355.700989 1103.989380,369.629700 1127.942139,362.126953 
	C1129.604126,361.606384 1131.362549,361.394043 1133.332642,361.749939 
	C1132.062500,363.262177 1130.792358,364.774414 1129.327759,366.518188 
	C1135.190918,369.369568 1140.815430,372.104919 1146.694824,374.964233 
	C1151.498901,369.694519 1156.297241,364.430969 1161.251221,358.996918 
	C1170.196045,363.026917 1179.004150,366.872742 1187.655762,371.043396 
	C1188.777832,371.584259 1189.738647,373.836975 1189.662476,375.236267 
	C1189.400757,380.045990 1188.502930,384.818878 1188.167236,389.628113 
	C1188.070679,391.012238 1188.642700,393.268829 1189.607422,393.764343 
	C1195.028076,396.548676 1200.662231,398.917114 1206.752930,401.666412 
	C1209.319092,368.299835 1211.837402,335.555664 1214.365479,302.686096 
	C1208.653076,300.104187 1202.963867,297.532776 1197.336060,294.989105 
	C1196.230713,296.317352 1195.441772,297.393402 1194.525635,298.347321 
	C1174.685181,319.007751 1154.834839,339.658630 1134.952637,360.278961 
	C1134.488159,360.760651 1133.635986,360.868286 1132.698608,360.353638 
M766.881409,372.259583 
	C748.220032,364.300537 729.576416,356.299164 710.865356,348.458710 
	C709.280579,347.794678 706.893066,347.527435 705.489075,348.254669 
	C702.144043,349.987305 699.164673,352.425964 695.713745,354.802490 
	C713.364807,380.592804 730.818359,406.094543 748.369507,431.738861 
	C753.348572,428.331543 758.128662,425.060364 763.138245,421.632111 
	C752.754883,406.439362 742.565308,391.530121 731.742310,375.694183 
	C734.123901,376.565826 735.487000,377.011230 736.808899,377.556610 
	C754.486938,384.850616 772.145630,392.192047 789.857544,399.402893 
	C791.356079,400.012970 793.587036,400.472351 794.811646,399.795868 
	C798.415222,397.805237 801.683350,395.207367 805.356323,392.657349 
	C787.710327,366.876801 770.262695,341.386108 752.700256,315.727539 
	C747.516479,319.290985 742.626648,322.652405 737.988953,325.840454 
	C748.488159,341.330353 758.665894,356.346039 768.206726,371.901123 
	C767.996582,372.083435 767.786377,372.265747 766.881409,372.259583 
M1236.879639,1121.885132 
	C1249.112671,1127.216187 1261.345703,1132.547241 1274.166992,1138.134766 
	C1272.691162,1122.738159 1271.296997,1108.194824 1269.902832,1093.651367 
	C1270.247437,1093.579102 1270.592163,1093.506714 1270.936768,1093.434326 
	C1282.408813,1109.901123 1293.880981,1126.367798 1305.425659,1142.938721 
	C1310.542114,1139.222290 1315.349243,1135.730591 1320.474854,1132.007446 
	C1302.633545,1106.363525 1285.002930,1081.022827 1267.253662,1055.511353 
	C1261.645874,1059.357544 1256.466797,1062.909668 1251.142456,1066.561401 
	C1252.481934,1081.288452 1253.829102,1096.100098 1255.248535,1111.707031 
	C1252.690063,1110.595703 1251.034790,1109.909912 1249.406738,1109.164551 
	C1238.522705,1104.181274 1227.670288,1099.127563 1216.733521,1094.263062 
	C1215.296997,1093.624146 1212.995728,1093.218750 1211.855591,1093.927979 
	C1207.521851,1096.623779 1203.500244,1099.821533 1199.067627,1103.045776 
	C1216.790527,1128.523682 1234.437012,1153.891479 1252.252319,1179.502075 
	C1257.518433,1175.961426 1262.419434,1172.666382 1267.629028,1169.163696 
	C1256.767212,1153.423096 1246.102295,1137.968018 1235.801392,1122.181641 
	C1235.801392,1122.181641 1236.152466,1121.836670 1236.879639,1121.885132 
M780.156738,943.336243 
	C857.288696,1026.843384 951.974060,1059.635864 1063.373535,1036.786987 
	C1242.140747,1000.120361 1342.879150,803.663452 1270.409180,636.042114 
	C1217.227661,513.034424 1089.496704,441.331818 958.069885,461.304932 
	C884.617554,472.467590 823.388550,506.583252 776.044678,563.818420 
	C720.620117,630.822449 699.450623,708.251282 711.432861,794.245300 
	C719.254822,850.382324 742.734863,899.807129 780.156738,943.336243 
M893.171204,1239.416870 
	C904.629211,1243.766235 916.282593,1245.864990 928.267822,1241.836792 
	C930.063354,1241.233398 932.357971,1239.696655 932.858887,1238.101074 
	C934.538635,1232.750610 935.510559,1227.177856 936.874695,1221.154907 
	C926.153198,1228.309326 915.247925,1227.669556 904.269470,1224.038818 
	C894.961853,1220.960571 889.146973,1214.461182 887.690979,1204.647461 
	C886.062073,1193.668945 888.484741,1183.434326 894.703064,1174.270142 
	C898.676208,1168.414917 904.535461,1165.254761 911.591370,1164.984375 
	C924.571045,1164.486694 935.942017,1168.347046 945.013489,1178.604858 
	C946.487000,1172.543701 947.883301,1166.800293 949.279541,1161.056885 
	C949.549377,1161.108765 949.819153,1161.160645 950.088989,1161.212524 
	C950.088989,1164.807983 950.088989,1168.403564 950.088989,1172.120850 
	C957.758728,1172.120850 965.132568,1172.120850 972.745911,1172.120850 
	C971.495911,1198.365479 970.280701,1223.880371 969.057251,1249.568359 
	C975.872070,1250.005737 981.973328,1250.397339 988.560608,1250.820190 
	C989.828979,1224.902344 991.087036,1199.194336 992.367798,1173.023804 
	C1000.199463,1173.536621 1007.618225,1174.022339 1015.595093,1174.544556 
	C1015.595093,1168.890503 1015.595093,1163.308472 1015.595093,1157.675659 
	C1014.031433,1157.796997 1012.270691,1158.122070 1010.529236,1158.039673 
	C992.066528,1157.166626 973.609314,1156.170288 955.142944,1155.391479 
	C953.092712,1155.305054 950.994385,1156.357544 947.867065,1157.147461 
	C938.511475,1150.350220 926.413940,1147.590332 913.765930,1147.250610 
	C891.465454,1146.651733 875.612183,1160.033081 869.445679,1184.125122 
	C863.050903,1209.109253 871.449463,1229.169556 893.171204,1239.416870 
M1276.169067,366.905731 
	C1276.813110,358.439514 1277.534302,349.977783 1278.026245,341.502747 
	C1278.109497,340.069214 1277.666748,337.969543 1276.677490,337.220520 
	C1272.609619,334.140686 1268.236938,331.463379 1263.687622,328.446503 
	C1245.920654,353.995697 1228.298950,379.335999 1210.519043,404.903900 
	C1215.747681,408.667969 1220.558472,412.131348 1225.604980,415.764343 
	C1236.574585,400.022247 1247.400269,384.486816 1258.225830,368.951416 
	C1258.580933,369.143921 1258.936035,369.336456 1259.291016,369.528961 
	C1258.490967,383.130798 1257.690796,396.732605 1256.846436,411.086426 
	C1270.644409,404.418762 1283.843018,398.040649 1297.041748,391.662567 
	C1297.249634,391.955963 1297.457520,392.249359 1297.665527,392.542755 
	C1286.235229,409.004150 1274.804932,425.465576 1263.285156,442.055969 
	C1268.726196,445.662323 1273.641113,448.919952 1278.781860,452.327240 
	C1296.686646,426.582855 1314.327881,401.217468 1332.006348,375.798492 
	C1327.661377,372.763733 1323.440674,370.313812 1319.850952,367.148346 
	C1317.063477,364.690521 1314.925049,364.932831 1311.903198,366.433044 
	C1299.872803,372.405365 1287.724609,378.140594 1274.998291,384.262787 
	C1275.399658,378.334137 1275.755249,373.083710 1276.169067,366.905731 
M581.843323,1010.581543 
	C585.249023,1016.806763 587.884094,1023.637756 592.209351,1029.140137 
	C603.761597,1043.836304 624.444275,1049.936035 642.225708,1043.966553 
	C661.331726,1037.552368 675.443359,1025.602173 677.758057,1004.435120 
	C680.036987,983.596191 671.103699,967.118164 653.169739,956.752014 
	C634.159180,945.763550 615.099976,948.693909 597.987122,961.475891 
	C581.808594,973.559937 576.803711,990.212891 581.843323,1010.581543 
M580.115540,478.606323 
	C578.124451,480.842072 575.912537,482.919495 574.177734,485.338959 
	C562.019470,502.295959 559.558228,520.396851 570.222351,538.692627 
	C580.555542,556.420593 596.375671,566.254211 617.393005,564.616943 
	C637.560486,563.045959 654.433655,547.043274 658.874207,526.840942 
	C663.464355,505.958496 654.531921,485.726013 635.700500,474.351196 
	C616.744446,462.901062 597.324768,464.234222 580.115540,478.606323 
M770.267029,1111.044434 
	C770.542419,1103.218628 770.892822,1095.394287 771.027100,1087.566040 
	C771.052673,1086.074829 770.696167,1083.996094 769.701782,1083.176880 
	C766.659363,1080.670898 763.220337,1078.646240 759.653503,1076.244507 
	C742.020508,1101.966553 724.631042,1127.333374 706.973022,1153.091919 
	C711.813660,1156.410522 716.665405,1159.736816 721.745361,1163.219482 
	C732.084656,1148.144409 742.143127,1133.478760 752.201599,1118.813110 
	C753.221375,1121.014038 753.251892,1122.655396 753.216675,1124.295410 
	C752.820007,1142.786133 752.365173,1161.276123 752.086243,1179.768677 
	C752.059753,1181.529541 752.582581,1183.920044 753.774048,1184.956543 
	C756.838379,1187.622314 760.421753,1189.691284 763.993530,1192.132568 
	C781.701111,1166.296631 799.100769,1140.909912 816.711426,1115.215454 
	C811.775391,1111.835571 806.860840,1108.470459 801.908691,1105.079590 
	C791.141907,1120.797119 780.529175,1136.289551 770.232239,1151.321289 
	C770.232239,1138.215942 770.232239,1125.098999 770.267029,1111.044434 
M685.280823,467.227539 
	C676.253662,458.670624 667.226501,450.113678 657.358459,440.759674 
	C659.999512,440.985626 661.449402,440.990814 662.853149,441.247681 
	C681.514771,444.663055 700.163025,448.152710 718.839172,451.485962 
	C720.437012,451.771149 722.721008,451.664276 723.804626,450.723846 
	C726.911682,448.027252 729.565308,444.808167 732.602600,441.575897 
	C709.991028,420.138947 687.656372,398.964600 664.958984,377.446350 
	C660.768372,381.881012 656.716370,386.169067 652.636353,390.486755 
	C666.530762,403.647980 680.110718,416.511230 694.769348,430.396332 
	C691.739136,429.906494 690.278198,429.713379 688.834839,429.430542 
	C669.726440,425.686218 650.631042,421.872894 631.497131,418.264191 
	C629.616516,417.909485 626.992249,418.141815 625.602600,419.233673 
	C622.652344,421.551636 620.288574,424.615936 617.454224,427.617950 
	C640.088379,449.082245 662.422424,470.261932 685.102295,491.769592 
	C689.179871,487.486237 693.245300,483.215698 697.458740,478.789581 
	C693.274353,474.818573 689.531799,471.266907 685.280823,467.227539 
M734.006470,1081.502197 
	C738.333923,1077.431519 742.661377,1073.360718 747.227600,1069.065430 
	C742.919189,1064.543213 738.817017,1060.237305 734.830383,1056.052734 
	C721.129150,1069.032593 707.670959,1081.782227 694.212708,1094.531860 
	C693.860413,1094.277222 693.508057,1094.022461 693.155762,1093.767700 
	C693.597290,1091.851074 694.007629,1089.926514 694.485474,1088.018921 
	C699.091736,1069.627686 703.801331,1051.261353 708.188354,1032.818115 
	C708.652405,1030.866943 707.777832,1028.097046 706.575378,1026.365845 
	C704.710388,1023.680664 702.028992,1021.562561 699.520996,1019.029724 
	C676.986816,1040.360474 654.555176,1061.594238 631.925354,1083.015381 
	C636.095032,1087.396240 640.087952,1091.591309 644.266846,1095.981812 
	C657.539612,1083.437744 670.538086,1071.152954 684.654358,1057.811768 
	C684.008728,1060.973999 683.728882,1062.577881 683.351379,1064.158203 
	C679.023743,1082.275269 674.620178,1100.374756 670.436646,1118.524780 
	C670.014526,1120.356079 670.241333,1122.996094 671.309448,1124.377441 
	C673.697632,1127.466064 676.807007,1129.996948 679.612427,1132.744995 
	C679.952759,1132.519409 680.263855,1132.372192 680.501648,1132.147339 
	C698.170288,1115.433716 715.833069,1098.714111 734.006470,1081.502197 
M1417.999390,1013.416565 
	C1420.628174,1007.315491 1421.627808,1001.042297 1420.467773,994.408997 
	C1418.530884,983.331970 1412.240967,975.304810 1403.088013,969.317810 
	C1387.769775,959.298096 1372.376587,949.392883 1357.005005,939.454529 
	C1356.089478,938.862610 1355.087891,938.403870 1354.168701,937.906006 
	C1350.655762,943.345093 1347.357544,948.451660 1343.901733,953.802307 
	C1359.314819,963.784424 1374.604126,973.513916 1389.678345,983.565979 
	C1393.627930,986.199646 1397.417236,989.426697 1400.376831,993.107544 
	C1404.624512,998.390442 1404.279785,1004.642029 1400.524292,1010.286133 
	C1394.520752,1019.308960 1385.075317,1021.175537 1375.333618,1014.961365 
	C1360.042725,1005.207275 1344.867432,995.272400 1329.638306,985.421204 
	C1328.162231,984.466431 1326.653442,983.562256 1325.172852,982.642761 
	C1321.548950,988.261536 1318.237061,993.396423 1314.949463,998.493591 
	C1315.183472,998.874512 1315.287964,999.258850 1315.536865,999.419312 
	C1333.152344,1010.780823 1350.658691,1022.318848 1368.466919,1033.370483 
	C1375.251709,1037.581055 1382.969482,1039.051392 1391.052002,1037.143311 
	C1403.960938,1034.096069 1411.809937,1025.248779 1417.999390,1013.416565 
M1343.874756,517.554626 
	C1338.830200,541.857910 1359.320679,565.634827 1383.548340,562.805542 
	C1389.731079,562.083435 1396.064087,559.230713 1401.473267,555.948303 
	C1416.833862,546.627380 1431.755615,536.583191 1446.838013,526.804810 
	C1447.790161,526.187439 1448.636597,525.407227 1449.415405,524.794739 
	C1445.965088,519.470215 1442.644775,514.346130 1439.141479,508.939911 
	C1423.781860,518.882629 1408.634644,528.826233 1393.318970,538.503174 
	C1389.577393,540.867249 1385.442627,542.907898 1381.209351,544.128845 
	C1373.658691,546.306519 1367.893188,543.520203 1363.990479,536.718506 
	C1358.748413,527.582397 1360.935059,518.877686 1370.380005,512.665405 
	C1385.536621,502.696320 1400.816895,492.915314 1416.040405,483.047577 
	C1417.539062,482.076111 1419.004761,481.053497 1420.515869,480.034363 
	C1416.842285,474.423248 1413.427490,469.207581 1409.839355,463.726990 
	C1392.002808,475.370544 1374.372192,486.690063 1356.963745,498.341522 
	C1350.432129,502.713165 1346.015869,508.974640 1343.874756,517.554626 
M1214.767090,1166.730103 
	C1199.115967,1150.658691 1183.464966,1134.587158 1167.665894,1118.363892 
	C1162.109497,1120.895386 1156.428467,1123.483765 1151.008545,1125.953125 
	C1153.732666,1158.965698 1156.412720,1191.443604 1159.134399,1224.427246 
	C1164.265747,1222.309448 1168.923462,1220.159424 1173.746460,1218.485107 
	C1176.475830,1217.537720 1177.397217,1216.217896 1176.942139,1213.387207 
	C1176.177002,1208.626465 1175.772583,1203.808960 1175.078613,1199.035278 
	C1174.726440,1196.612793 1175.192505,1195.090942 1177.729004,1194.019775 
	C1185.381470,1190.788574 1192.969727,1187.390015 1200.461792,1183.803101 
	C1202.885864,1182.642456 1204.297119,1182.979736 1205.992920,1184.952271 
	C1209.781738,1189.359741 1213.797485,1193.572144 1217.883667,1198.042114 
	C1224.205811,1195.250610 1230.401611,1192.514893 1236.996094,1189.603149 
	C1229.595825,1181.989990 1222.427002,1174.614746 1214.767090,1166.730103 
M1389.515869,892.049866 
	C1393.111694,889.334351 1396.707397,886.618835 1400.533447,883.729309 
	C1395.355835,881.329651 1390.010254,878.715393 1384.527466,876.430237 
	C1383.473999,875.991089 1381.440186,876.378113 1380.604980,877.170532 
	C1368.907593,888.269104 1361.964722,901.557251 1364.143555,918.058899 
	C1365.558960,928.779053 1372.526489,935.469482 1382.639282,938.914246 
	C1392.695557,942.339783 1401.900513,940.918152 1409.146729,932.921753 
	C1413.002197,928.667236 1415.800903,923.452942 1419.058838,918.659790 
	C1421.386597,915.235107 1423.289062,911.418579 1426.086670,908.439270 
	C1430.598877,903.634094 1438.316650,905.023804 1441.004272,911.072205 
	C1442.159546,913.672119 1442.776245,916.968872 1442.337280,919.743286 
	C1439.942139,934.878235 1432.972290,946.558167 1415.704712,950.972473 
	C1423.220459,954.149475 1429.528320,956.911316 1435.936035,959.417908 
	C1436.857910,959.778564 1438.628540,959.288757 1439.386597,958.553589 
	C1453.159302,945.198120 1462.122559,929.653442 1458.792114,909.726135 
	C1456.737183,897.429810 1448.129883,890.581848 1436.395020,887.573242 
	C1425.681274,884.826538 1417.517944,889.210876 1411.072266,897.405151 
	C1408.309692,900.916992 1406.132690,904.885864 1403.631226,908.607849 
	C1401.502563,911.774963 1399.494507,915.055603 1397.064453,917.979614 
	C1393.825439,921.876831 1389.567139,922.940491 1384.958984,920.612366 
	C1380.542725,918.381165 1379.328369,914.033508 1380.795410,909.948364 
	C1382.950073,903.949341 1386.238892,898.357605 1389.515869,892.049866 
M1451.739624,562.637634 
	C1432.390503,560.047424 1417.566040,574.809082 1420.427368,593.984985 
	C1421.481079,601.046448 1423.191162,608.011475 1424.193481,615.078369 
	C1424.735352,618.898071 1423.463379,622.276611 1419.603760,624.246948 
	C1415.579956,626.301025 1411.695679,626.013428 1408.437012,623.159607 
	C1405.989258,621.015869 1403.706177,618.380432 1402.201538,615.516418 
	C1395.891113,603.505249 1394.415649,591.324829 1403.364868,578.244446 
	C1395.547974,580.909912 1389.098633,582.982727 1382.777832,585.392822 
	C1381.763428,585.779602 1380.790039,587.633728 1380.698364,588.875916 
	C1379.392700,606.576172 1383.116211,622.802063 1396.337280,635.483765 
	C1405.848877,644.607361 1418.615479,645.585815 1430.575806,639.080811 
	C1440.456055,633.707153 1444.472412,624.217468 1442.398682,610.792114 
	C1441.586182,605.531067 1440.476074,600.316528 1439.586914,595.066345 
	C1439.310547,593.434631 1439.149414,591.748108 1439.221069,590.099121 
	C1439.453491,584.752563 1442.168701,581.072266 1446.628174,580.062561 
	C1451.444824,578.972107 1454.792725,581.384644 1456.996948,585.243591 
	C1462.902954,595.583862 1464.207275,606.373535 1458.989502,618.094177 
	C1461.201538,617.418701 1463.050781,617.170776 1464.572632,616.330200 
	C1469.246338,613.749023 1477.093750,615.917542 1478.664062,609.379883 
	C1479.924072,604.134705 1478.313721,598.200073 1477.973999,592.571533 
	C1477.964111,592.406250 1477.932373,592.239014 1477.886475,592.079773 
	C1473.952148,578.421448 1468.059082,566.457214 1451.739624,562.637634 
M1322.643921,1091.850586 
	C1328.968750,1097.707520 1335.293701,1103.564453 1341.995483,1109.770508 
	C1346.172729,1105.282593 1350.092407,1101.071411 1354.149536,1096.712646 
	C1347.810059,1090.786133 1341.770996,1085.140381 1335.987549,1079.733765 
	C1339.432007,1074.880371 1343.071045,1070.695190 1345.654175,1065.936768 
	C1353.478638,1051.523560 1350.218750,1036.340088 1337.341431,1025.068970 
	C1323.626099,1013.064331 1309.154907,1011.522095 1295.687378,1022.170044 
	C1287.338745,1028.770874 1280.421509,1037.182129 1272.529053,1045.115112 
	C1289.796387,1061.213257 1305.965454,1076.287598 1322.643921,1091.850586 
M1295.430176,457.944427 
	C1293.151855,460.073730 1290.873413,462.203033 1288.348877,464.562408 
	C1292.582031,469.078613 1296.495361,473.253571 1300.551514,477.580963 
	C1307.055664,471.553833 1313.101929,465.951050 1319.480591,460.040192 
	C1322.194580,462.922180 1324.244629,465.619965 1326.791992,467.712036 
	C1336.698486,475.847778 1347.997192,479.534271 1360.227417,474.493256 
	C1373.047363,469.209198 1381.734985,459.626038 1384.383789,445.513428 
	C1384.803833,443.275787 1384.758179,440.839630 1384.390259,438.582947 
	C1381.587769,421.395172 1368.854980,411.479797 1356.996460,400.592773 
	C1336.371338,419.804626 1316.158203,438.632660 1295.430176,457.944427 
M831.135986,360.326599 
	C828.343323,353.778442 825.550659,347.230286 822.627197,340.375549 
	C830.681824,336.909515 838.403259,333.586884 846.509460,330.098633 
	C844.144836,324.829987 841.924255,319.882294 839.679443,314.880737 
	C831.632812,318.373657 823.939941,321.713043 815.988464,325.164673 
	C813.529846,319.399109 811.291931,314.151306 808.937195,308.629333 
	C819.234131,304.345215 828.882996,300.330780 838.771667,296.216522 
	C836.727417,291.008759 834.583679,285.547668 832.426392,280.051971 
	C816.617798,286.955414 801.146606,293.711548 785.444946,300.568329 
	C797.818359,329.222443 810.067322,357.588409 822.454712,386.275024 
	C838.639221,379.276642 854.452881,372.438568 870.636108,365.440704 
	C868.475525,359.831909 866.484314,354.662903 864.563293,349.676147 
	C854.745483,353.937317 845.457153,357.971405 836.165955,361.999023 
	C834.379150,362.773560 832.446289,364.174744 831.135986,360.326599 
M824.549255,1218.904419 
	C830.160339,1221.294922 835.771423,1223.685425 841.628235,1226.180542 
	C844.224731,1220.751587 846.637085,1215.707886 848.913879,1210.947510 
	C838.083862,1206.307495 827.607666,1201.818970 816.880981,1197.223145 
	C820.333740,1189.242920 823.541504,1181.828979 826.896851,1174.073853 
	C835.037781,1177.594360 842.734924,1180.922974 850.763367,1184.394775 
	C852.963074,1179.126343 855.048950,1174.130493 857.175659,1169.036743 
	C849.062500,1165.535522 841.362610,1162.212646 833.456848,1158.801025 
	C835.946716,1153.082031 838.180115,1147.952271 840.615051,1142.359619 
	C850.666870,1146.842285 860.301941,1151.139038 870.132751,1155.523193 
	C872.524231,1150.467896 874.987427,1145.261108 877.547607,1139.849365 
	C861.757629,1133.102295 846.243652,1126.473267 830.391602,1119.699707 
	C818.047668,1148.318970 805.778320,1176.765259 793.428345,1205.398560 
	C804.048645,1210.006226 813.949768,1214.301758 824.549255,1218.904419 
M941.624451,346.143555 
	C942.801147,343.967041 945.130005,341.678070 944.930603,339.635895 
	C944.410217,334.305176 942.783020,329.082489 941.509888,323.428833 
	C929.258240,340.760468 905.731262,342.819427 896.288879,335.908661 
	C884.978516,327.630585 878.778137,305.698822 884.872803,292.972565 
	C887.606323,287.264587 892.151062,283.332703 897.888794,281.181549 
	C908.349976,277.259583 919.028870,275.938782 930.267578,281.026794 
	C929.014404,275.315308 927.641418,270.195312 926.831665,264.987701 
	C926.241882,261.195221 924.133423,259.892090 920.751465,260.051178 
	C915.284119,260.308411 909.698853,260.120605 904.385864,261.207916 
	C888.507446,264.457489 874.558838,271.018311 867.128784,286.657440 
	C858.093140,305.676117 864.885681,335.442627 881.111084,348.924469 
	C897.024292,362.146820 923.003418,361.153076 941.624451,346.143555 
M1073.294312,1157.813721 
	C1067.974854,1164.092651 1064.861694,1171.350342 1063.970947,1179.502686 
	C1062.770142,1190.494385 1064.550171,1201.087280 1068.848267,1211.230957 
	C1081.438477,1240.943848 1120.678101,1248.198242 1143.286621,1224.939819 
	C1144.600586,1223.587891 1145.845093,1221.162842 1145.586060,1219.472656 
	C1144.759033,1214.076172 1143.207275,1208.790771 1141.880981,1203.233887 
	C1131.766968,1219.396973 1108.029907,1223.193115 1097.843628,1216.634644 
	C1086.084106,1209.063599 1079.099731,1186.933350 1085.006958,1173.729492 
	C1088.894409,1165.040405 1096.324585,1160.924805 1105.190063,1159.087402 
	C1113.675537,1157.328979 1122.173584,1156.693848 1130.735962,1161.232544 
	C1129.368896,1155.177612 1127.988525,1149.880981 1127.031738,1144.509033 
	C1126.488647,1141.459595 1124.915771,1140.231445 1122.045898,1140.114014 
	C1103.649048,1139.362427 1087.085571,1143.753296 1073.294312,1157.813721 
M570.107483,903.535950 
	C576.505005,900.880493 582.699463,897.418396 589.344360,895.745544 
	C601.348877,892.723572 611.658813,897.786438 617.157715,908.873047 
	C621.965881,918.566956 624.244324,928.782104 620.389832,940.109619 
	C626.136475,938.093994 631.358337,936.072998 636.704346,934.465149 
	C639.486267,933.628479 640.288818,932.143921 640.195923,929.423889 
	C639.632812,912.934387 633.864929,898.620239 622.312622,886.807251 
	C617.194824,881.573914 610.828125,878.340637 603.639709,876.877808 
	C588.625427,873.822327 574.836182,877.628662 562.067505,885.214722 
	C535.106995,901.232361 533.550232,941.723999 559.033081,960.267883 
	C560.248718,961.152466 562.213623,962.055725 563.449036,961.684265 
	C568.950134,960.030396 574.312622,957.915588 580.279907,955.767700 
	C578.547363,954.924133 577.481506,954.462830 576.469421,953.903931 
	C558.097595,943.757996 554.402649,917.134521 570.107483,903.535950 
M967.300537,270.731842 
	C967.865601,271.921753 968.863708,273.088165 968.929749,274.305145 
	C969.724304,288.946442 970.364624,303.596008 971.078979,318.241760 
	C971.556335,328.027618 972.087646,337.810791 972.580566,347.319672 
	C979.325439,347.319672 985.556519,347.319672 992.119019,347.319672 
	C990.882629,321.170654 989.674561,295.619507 988.425232,269.196716 
	C996.480530,269.196716 1003.867493,269.196716 1011.528748,269.196716 
	C1011.238831,262.812897 1010.988159,257.293457 1010.777344,252.650574 
	C988.581787,253.728241 966.888733,254.781509 944.853821,255.851379 
	C945.201538,261.576538 945.539307,267.139374 945.830811,271.938599 
	C953.126770,271.503387 959.732239,271.109375 967.300537,270.731842 
M556.925903,754.598450 
	C552.878296,750.967957 548.371338,750.145203 543.642029,752.954407 
	C539.547302,755.386658 537.705750,759.212097 538.514526,763.973572 
	C539.320679,768.719116 542.295349,771.780396 546.932190,772.792297 
	C551.369751,773.760620 555.247131,772.296997 557.900391,768.540161 
	C561.072571,764.048401 560.722900,759.510498 556.925903,754.598450 
M1456.649414,770.219360 
	C1460.577393,765.471497 1461.345703,760.800537 1458.645386,756.582764 
	C1456.082397,752.579529 1452.327148,750.731262 1447.579590,751.570923 
	C1443.091309,752.364685 1440.024170,755.044800 1438.974609,759.523438 
	C1437.895996,764.126770 1439.134521,768.155090 1443.109009,770.954285 
	C1447.419556,773.990173 1451.803589,773.730103 1456.649414,770.219360 
z"/>
<path fill="#A515FE" opacity="1.000000" stroke="none" 
	d="
M779.927856,943.065552 
	C742.734863,899.807129 719.254822,850.382324 711.432861,794.245300 
	C699.450623,708.251282 720.620117,630.822449 776.044678,563.818420 
	C823.388550,506.583252 884.617554,472.467590 958.069885,461.304932 
	C1089.496704,441.331818 1217.227661,513.034424 1270.409180,636.042114 
	C1342.879150,803.663452 1242.140747,1000.120361 1063.373535,1036.786987 
	C951.974060,1059.635864 857.288696,1026.843384 779.927856,943.065552 
z"/>
<path fill="#A315FA" opacity="1.000000" stroke="none" 
	d="
M892.819458,1239.265381 
	C871.449463,1229.169556 863.050903,1209.109253 869.445679,1184.125122 
	C875.612183,1160.033081 891.465454,1146.651733 913.765930,1147.250610 
	C926.413940,1147.590332 938.511475,1150.350220 947.867065,1157.147461 
	C950.994385,1156.357544 953.092712,1155.305054 955.142944,1155.391479 
	C973.609314,1156.170288 992.066528,1157.166626 1010.529236,1158.039673 
	C1012.270691,1158.122070 1014.031433,1157.796997 1015.595093,1157.675659 
	C1015.595093,1163.308472 1015.595093,1168.890503 1015.595093,1174.544556 
	C1007.618225,1174.022339 1000.199463,1173.536621 992.367798,1173.023804 
	C991.087036,1199.194336 989.828979,1224.902344 988.560608,1250.820190 
	C981.973328,1250.397339 975.872070,1250.005737 969.057251,1249.568359 
	C970.280701,1223.880371 971.495911,1198.365479 972.745911,1172.120850 
	C965.132568,1172.120850 957.758728,1172.120850 950.088989,1172.120850 
	C950.088989,1168.403564 950.088989,1164.807983 950.088989,1161.212524 
	C949.819153,1161.160645 949.549377,1161.108765 949.279541,1161.056885 
	C947.883301,1166.800293 946.487000,1172.543701 945.013489,1178.604858 
	C935.942017,1168.347046 924.571045,1164.486694 911.591370,1164.984375 
	C904.535461,1165.254761 898.676208,1168.414917 894.703064,1174.270142 
	C888.484741,1183.434326 886.062073,1193.668945 887.690979,1204.647461 
	C889.146973,1214.461182 894.961853,1220.960571 904.269470,1224.038818 
	C915.247925,1227.669556 926.153198,1228.309326 936.874695,1221.154907 
	C935.510559,1227.177856 934.538635,1232.750610 932.858887,1238.101074 
	C932.357971,1239.696655 930.063354,1241.233398 928.267822,1241.836792 
	C916.282593,1245.864990 904.629211,1243.766235 892.819458,1239.265381 
z"/>
<path fill="#A315FB" opacity="1.000000" stroke="none" 
	d="
M1235.437500,1122.512939 
	C1246.102295,1137.968018 1256.767212,1153.423096 1267.629028,1169.163696 
	C1262.419434,1172.666382 1257.518433,1175.961426 1252.252319,1179.502075 
	C1234.437012,1153.891479 1216.790527,1128.523682 1199.067627,1103.045776 
	C1203.500244,1099.821533 1207.521851,1096.623779 1211.855591,1093.927979 
	C1212.995728,1093.218750 1215.296997,1093.624146 1216.733521,1094.263062 
	C1227.670288,1099.127563 1238.522705,1104.181274 1249.406738,1109.164551 
	C1251.034790,1109.909912 1252.690063,1110.595703 1255.248535,1111.707031 
	C1253.829102,1096.100098 1252.481934,1081.288452 1251.142456,1066.561401 
	C1256.466797,1062.909668 1261.645874,1059.357544 1267.253662,1055.511353 
	C1285.002930,1081.022827 1302.633545,1106.363525 1320.474854,1132.007446 
	C1315.349243,1135.730591 1310.542114,1139.222290 1305.425659,1142.938721 
	C1293.880981,1126.367798 1282.408813,1109.901123 1270.936768,1093.434326 
	C1270.592163,1093.506714 1270.247437,1093.579102 1269.902832,1093.651367 
	C1271.296997,1108.194824 1272.691162,1122.738159 1274.166992,1138.134766 
	C1261.345703,1132.547241 1249.112671,1127.216187 1236.390503,1121.637939 
	C1235.746704,1121.764771 1235.592041,1122.138916 1235.437500,1122.512939 
z"/>
<path fill="#A315FB" opacity="1.000000" stroke="none" 
	d="
M1276.139893,367.369507 
	C1275.755249,373.083710 1275.399658,378.334137 1274.998291,384.262787 
	C1287.724609,378.140594 1299.872803,372.405365 1311.903198,366.433044 
	C1314.925049,364.932831 1317.063477,364.690521 1319.850952,367.148346 
	C1323.440674,370.313812 1327.661377,372.763733 1332.006348,375.798492 
	C1314.327881,401.217468 1296.686646,426.582855 1278.781860,452.327240 
	C1273.641113,448.919952 1268.726196,445.662323 1263.285156,442.055969 
	C1274.804932,425.465576 1286.235229,409.004150 1297.665527,392.542755 
	C1297.457520,392.249359 1297.249634,391.955963 1297.041748,391.662567 
	C1283.843018,398.040649 1270.644409,404.418762 1256.846436,411.086426 
	C1257.690796,396.732605 1258.490967,383.130798 1259.291016,369.528961 
	C1258.936035,369.336456 1258.580933,369.143921 1258.225830,368.951416 
	C1247.400269,384.486816 1236.574585,400.022247 1225.604980,415.764343 
	C1220.558472,412.131348 1215.747681,408.667969 1210.519043,404.903900 
	C1228.298950,379.335999 1245.920654,353.995697 1263.687622,328.446503 
	C1268.236938,331.463379 1272.609619,334.140686 1276.677490,337.220520 
	C1277.666748,337.969543 1278.109497,340.069214 1278.026245,341.502747 
	C1277.534302,349.977783 1276.813110,358.439514 1276.139893,367.369507 
z"/>
<path fill="#A315FB" opacity="1.000000" stroke="none" 
	d="
M581.719482,1010.192261 
	C576.803711,990.212891 581.808594,973.559937 597.987122,961.475891 
	C615.099976,948.693909 634.159180,945.763550 653.169739,956.752014 
	C671.103699,967.118164 680.036987,983.596191 677.758057,1004.435120 
	C675.443359,1025.602173 661.331726,1037.552368 642.225708,1043.966553 
	C624.444275,1049.936035 603.761597,1043.836304 592.209351,1029.140137 
	C587.884094,1023.637756 585.249023,1016.806763 581.719482,1010.192261 
M644.828857,1021.424744 
	C647.003540,1019.623169 649.362549,1018.000977 651.321228,1015.989075 
	C660.162170,1006.907593 662.183350,995.078918 656.895508,984.330933 
	C651.224365,972.803589 641.394226,967.349792 628.264343,969.033081 
	C618.479614,970.287537 610.113708,974.763062 604.123535,982.672974 
	C596.738037,992.425293 596.505859,1002.973206 602.339539,1013.579773 
	C607.881409,1023.655823 616.288452,1029.527588 628.037598,1027.800659 
	C633.605774,1026.982178 638.841309,1023.901123 644.828857,1021.424744 
z"/>
<path fill="#A315FB" opacity="1.000000" stroke="none" 
	d="
M580.376953,478.368774 
	C597.324768,464.234222 616.744446,462.901062 635.700500,474.351196 
	C654.531921,485.726013 663.464355,505.958496 658.874207,526.840942 
	C654.433655,547.043274 637.560486,563.045959 617.393005,564.616943 
	C596.375671,566.254211 580.555542,556.420593 570.222351,538.692627 
	C559.558228,520.396851 562.019470,502.295959 574.177734,485.338959 
	C575.912537,482.919495 578.124451,480.842072 580.376953,478.368774 
M619.067932,488.195801 
	C598.037109,482.191589 579.688416,495.509430 581.003662,515.823608 
	C581.755981,527.442322 592.040100,539.495178 604.974670,543.917114 
	C618.503357,548.542175 631.944336,543.093750 639.295410,530.004822 
	C646.172668,517.759583 643.692688,504.960052 632.183533,495.810059 
	C628.466858,492.855255 623.944214,490.914093 619.067932,488.195801 
z"/>
<path fill="#A315FB" opacity="1.000000" stroke="none" 
	d="
M768.843689,371.361725 
	C758.665894,356.346039 748.488159,341.330353 737.988953,325.840454 
	C742.626648,322.652405 747.516479,319.290985 752.700256,315.727539 
	C770.262695,341.386108 787.710327,366.876801 805.356323,392.657349 
	C801.683350,395.207367 798.415222,397.805237 794.811646,399.795868 
	C793.587036,400.472351 791.356079,400.012970 789.857544,399.402893 
	C772.145630,392.192047 754.486938,384.850616 736.808899,377.556610 
	C735.487000,377.011230 734.123901,376.565826 731.742310,375.694183 
	C742.565308,391.530121 752.754883,406.439362 763.138245,421.632111 
	C758.128662,425.060364 753.348572,428.331543 748.369507,431.738861 
	C730.818359,406.094543 713.364807,380.592804 695.713745,354.802490 
	C699.164673,352.425964 702.144043,349.987305 705.489075,348.254669 
	C706.893066,347.527435 709.280579,347.794678 710.865356,348.458710 
	C729.576416,356.299164 748.220032,364.300537 767.447998,372.544220 
	C768.554565,372.731232 769.094543,372.633606 769.634460,372.535950 
	C769.370850,372.144562 769.107300,371.753143 768.843689,371.361725 
z"/>
<path fill="#A315FB" opacity="1.000000" stroke="none" 
	d="
M770.249634,1111.513184 
	C770.232239,1125.098999 770.232239,1138.215942 770.232239,1151.321289 
	C780.529175,1136.289551 791.141907,1120.797119 801.908691,1105.079590 
	C806.860840,1108.470459 811.775391,1111.835571 816.711426,1115.215454 
	C799.100769,1140.909912 781.701111,1166.296631 763.993530,1192.132568 
	C760.421753,1189.691284 756.838379,1187.622314 753.774048,1184.956543 
	C752.582581,1183.920044 752.059753,1181.529541 752.086243,1179.768677 
	C752.365173,1161.276123 752.820007,1142.786133 753.216675,1124.295410 
	C753.251892,1122.655396 753.221375,1121.014038 752.201599,1118.813110 
	C742.143127,1133.478760 732.084656,1148.144409 721.745361,1163.219482 
	C716.665405,1159.736816 711.813660,1156.410522 706.973022,1153.091919 
	C724.631042,1127.333374 742.020508,1101.966553 759.653503,1076.244507 
	C763.220337,1078.646240 766.659363,1080.670898 769.701782,1083.176880 
	C770.696167,1083.996094 771.052673,1086.074829 771.027100,1087.566040 
	C770.892822,1095.394287 770.542419,1103.218628 770.249634,1111.513184 
z"/>
<path fill="#A315FB" opacity="1.000000" stroke="none" 
	d="
M685.535034,467.471375 
	C689.531799,471.266907 693.274353,474.818573 697.458740,478.789581 
	C693.245300,483.215698 689.179871,487.486237 685.102295,491.769592 
	C662.422424,470.261932 640.088379,449.082245 617.454224,427.617950 
	C620.288574,424.615936 622.652344,421.551636 625.602600,419.233673 
	C626.992249,418.141815 629.616516,417.909485 631.497131,418.264191 
	C650.631042,421.872894 669.726440,425.686218 688.834839,429.430542 
	C690.278198,429.713379 691.739136,429.906494 694.769348,430.396332 
	C680.110718,416.511230 666.530762,403.647980 652.636353,390.486755 
	C656.716370,386.169067 660.768372,381.881012 664.958984,377.446350 
	C687.656372,398.964600 709.991028,420.138947 732.602600,441.575897 
	C729.565308,444.808167 726.911682,448.027252 723.804626,450.723846 
	C722.721008,451.664276 720.437012,451.771149 718.839172,451.485962 
	C700.163025,448.152710 681.514771,444.663055 662.853149,441.247681 
	C661.449402,440.990814 659.999512,440.985626 657.358459,440.759674 
	C667.226501,450.113678 676.253662,458.670624 685.535034,467.471375 
z"/>
<path fill="#A315FB" opacity="1.000000" stroke="none" 
	d="
M733.751404,1081.748535 
	C715.833069,1098.714111 698.170288,1115.433716 680.501648,1132.147339 
	C680.263855,1132.372192 679.952759,1132.519409 679.612427,1132.744995 
	C676.807007,1129.996948 673.697632,1127.466064 671.309448,1124.377441 
	C670.241333,1122.996094 670.014526,1120.356079 670.436646,1118.524780 
	C674.620178,1100.374756 679.023743,1082.275269 683.351379,1064.158203 
	C683.728882,1062.577881 684.008728,1060.973999 684.654358,1057.811768 
	C670.538086,1071.152954 657.539612,1083.437744 644.266846,1095.981812 
	C640.087952,1091.591309 636.095032,1087.396240 631.925354,1083.015381 
	C654.555176,1061.594238 676.986816,1040.360474 699.520996,1019.029724 
	C702.028992,1021.562561 704.710388,1023.680664 706.575378,1026.365845 
	C707.777832,1028.097046 708.652405,1030.866943 708.188354,1032.818115 
	C703.801331,1051.261353 699.091736,1069.627686 694.485474,1088.018921 
	C694.007629,1089.926514 693.597290,1091.851074 693.155762,1093.767700 
	C693.508057,1094.022461 693.860413,1094.277222 694.212708,1094.531860 
	C707.670959,1081.782227 721.129150,1069.032593 734.830383,1056.052734 
	C738.817017,1060.237305 742.919189,1064.543213 747.227600,1069.065430 
	C742.661377,1073.360718 738.333923,1077.431519 733.751404,1081.748535 
M693.958618,1094.475098 
	C693.754456,1094.400024 693.550354,1094.324951 693.346191,1094.249878 
	C693.410095,1094.463135 693.473999,1094.676514 693.958618,1094.475098 
z"/>
<path fill="#A315FB" opacity="1.000000" stroke="none" 
	d="
M1417.856934,1013.768677 
	C1411.809937,1025.248779 1403.960938,1034.096069 1391.052002,1037.143311 
	C1382.969482,1039.051392 1375.251709,1037.581055 1368.466919,1033.370483 
	C1350.658691,1022.318848 1333.152344,1010.780823 1315.536865,999.419312 
	C1315.287964,999.258850 1315.183472,998.874512 1314.949463,998.493591 
	C1318.237061,993.396423 1321.548950,988.261536 1325.172852,982.642761 
	C1326.653442,983.562256 1328.162231,984.466431 1329.638306,985.421204 
	C1344.867432,995.272400 1360.042725,1005.207275 1375.333618,1014.961365 
	C1385.075317,1021.175537 1394.520752,1019.308960 1400.524292,1010.286133 
	C1404.279785,1004.642029 1404.624512,998.390442 1400.376831,993.107544 
	C1397.417236,989.426697 1393.627930,986.199646 1389.678345,983.565979 
	C1374.604126,973.513916 1359.314819,963.784424 1343.901733,953.802307 
	C1347.357544,948.451660 1350.655762,943.345093 1354.168701,937.906006 
	C1355.087891,938.403870 1356.089478,938.862610 1357.005005,939.454529 
	C1372.376587,949.392883 1387.769775,959.298096 1403.088013,969.317810 
	C1412.240967,975.304810 1418.530884,983.331970 1420.467773,994.408997 
	C1421.627808,1001.042297 1420.628174,1007.315491 1417.856934,1013.768677 
z"/>
<path fill="#A315FB" opacity="1.000000" stroke="none" 
	d="
M1343.941650,517.144043 
	C1346.015869,508.974640 1350.432129,502.713165 1356.963745,498.341522 
	C1374.372192,486.690063 1392.002808,475.370544 1409.839355,463.726990 
	C1413.427490,469.207581 1416.842285,474.423248 1420.515869,480.034363 
	C1419.004761,481.053497 1417.539062,482.076111 1416.040405,483.047577 
	C1400.816895,492.915314 1385.536621,502.696320 1370.380005,512.665405 
	C1360.935059,518.877686 1358.748413,527.582397 1363.990479,536.718506 
	C1367.893188,543.520203 1373.658691,546.306519 1381.209351,544.128845 
	C1385.442627,542.907898 1389.577393,540.867249 1393.318970,538.503174 
	C1408.634644,528.826233 1423.781860,518.882629 1439.141479,508.939911 
	C1442.644775,514.346130 1445.965088,519.470215 1449.415405,524.794739 
	C1448.636597,525.407227 1447.790161,526.187439 1446.838013,526.804810 
	C1431.755615,536.583191 1416.833862,546.627380 1401.473267,555.948303 
	C1396.064087,559.230713 1389.731079,562.083435 1383.548340,562.805542 
	C1359.320679,565.634827 1338.830200,541.857910 1343.941650,517.144043 
z"/>
<path fill="#A315FB" opacity="1.000000" stroke="none" 
	d="
M1215.012695,1166.984863 
	C1222.427002,1174.614746 1229.595825,1181.989990 1236.996094,1189.603149 
	C1230.401611,1192.514893 1224.205811,1195.250610 1217.883667,1198.042114 
	C1213.797485,1193.572144 1209.781738,1189.359741 1205.992920,1184.952271 
	C1204.297119,1182.979736 1202.885864,1182.642456 1200.461792,1183.803101 
	C1192.969727,1187.390015 1185.381470,1190.788574 1177.729004,1194.019775 
	C1175.192505,1195.090942 1174.726440,1196.612793 1175.078613,1199.035278 
	C1175.772583,1203.808960 1176.177002,1208.626465 1176.942139,1213.387207 
	C1177.397217,1216.217896 1176.475830,1217.537720 1173.746460,1218.485107 
	C1168.923462,1220.159424 1164.265747,1222.309448 1159.134399,1224.427246 
	C1156.412720,1191.443604 1153.732666,1158.965698 1151.008545,1125.953125 
	C1156.428467,1123.483765 1162.109497,1120.895386 1167.665894,1118.363892 
	C1183.464966,1134.587158 1199.115967,1150.658691 1215.012695,1166.984863 
M1187.634766,1171.149048 
	C1188.822876,1170.508179 1190.010986,1169.867432 1191.488281,1169.070679 
	C1183.951172,1160.797485 1176.869507,1153.024292 1169.787842,1145.251221 
	C1169.465454,1145.400635 1169.143188,1145.550049 1168.820801,1145.699463 
	C1170.086670,1156.221436 1171.352539,1166.743530 1172.691528,1177.872803 
	C1177.956787,1175.514038 1182.458130,1173.497681 1187.634766,1171.149048 
z"/>
<path fill="#A315FB" opacity="1.000000" stroke="none" 
	d="
M1132.964600,361.150421 
	C1133.635986,360.868286 1134.488159,360.760651 1134.952637,360.278961 
	C1154.834839,339.658630 1174.685181,319.007751 1194.525635,298.347321 
	C1195.441772,297.393402 1196.230713,296.317352 1197.336060,294.989105 
	C1202.963867,297.532776 1208.653076,300.104187 1214.365479,302.686096 
	C1211.837402,335.555664 1209.319092,368.299835 1206.752930,401.666412 
	C1200.662231,398.917114 1195.028076,396.548676 1189.607422,393.764343 
	C1188.642700,393.268829 1188.070679,391.012238 1188.167236,389.628113 
	C1188.502930,384.818878 1189.400757,380.045990 1189.662476,375.236267 
	C1189.738647,373.836975 1188.777832,371.584259 1187.655762,371.043396 
	C1179.004150,366.872742 1170.196045,363.026917 1161.251221,358.996918 
	C1156.297241,364.430969 1151.498901,369.694519 1146.694824,374.964233 
	C1140.815430,372.104919 1135.190918,369.369568 1129.327759,366.518188 
	C1130.792358,364.774414 1132.062500,363.262177 1133.168701,361.414429 
	C1133.004761,361.078888 1132.964600,361.150421 1132.964600,361.150421 
M1179.017212,348.552521 
	C1183.188965,350.401978 1187.360596,352.251434 1192.028198,354.320709 
	C1193.251831,343.121887 1194.407593,332.543060 1195.563477,321.964203 
	C1195.257202,321.831970 1194.950806,321.699738 1194.644531,321.567474 
	C1187.531860,329.517487 1180.419189,337.467468 1173.022583,345.734985 
	C1175.093506,346.692078 1176.732544,347.449615 1179.017212,348.552521 
z"/>
<path fill="#A315FA" opacity="1.000000" stroke="none" 
	d="
M1389.280029,892.321045 
	C1386.238892,898.357605 1382.950073,903.949341 1380.795410,909.948364 
	C1379.328369,914.033508 1380.542725,918.381165 1384.958984,920.612366 
	C1389.567139,922.940491 1393.825439,921.876831 1397.064453,917.979614 
	C1399.494507,915.055603 1401.502563,911.774963 1403.631226,908.607849 
	C1406.132690,904.885864 1408.309692,900.916992 1411.072266,897.405151 
	C1417.517944,889.210876 1425.681274,884.826538 1436.395020,887.573242 
	C1448.129883,890.581848 1456.737183,897.429810 1458.792114,909.726135 
	C1462.122559,929.653442 1453.159302,945.198120 1439.386597,958.553589 
	C1438.628540,959.288757 1436.857910,959.778564 1435.936035,959.417908 
	C1429.528320,956.911316 1423.220459,954.149475 1415.704712,950.972473 
	C1432.972290,946.558167 1439.942139,934.878235 1442.337280,919.743286 
	C1442.776245,916.968872 1442.159546,913.672119 1441.004272,911.072205 
	C1438.316650,905.023804 1430.598877,903.634094 1426.086670,908.439270 
	C1423.289062,911.418579 1421.386597,915.235107 1419.058838,918.659790 
	C1415.800903,923.452942 1413.002197,928.667236 1409.146729,932.921753 
	C1401.900513,940.918152 1392.695557,942.339783 1382.639282,938.914246 
	C1372.526489,935.469482 1365.558960,928.779053 1364.143555,918.058899 
	C1361.964722,901.557251 1368.907593,888.269104 1380.604980,877.170532 
	C1381.440186,876.378113 1383.473999,875.991089 1384.527466,876.430237 
	C1390.010254,878.715393 1395.355835,881.329651 1400.533447,883.729309 
	C1396.707397,886.618835 1393.111694,889.334351 1389.280029,892.321045 
z"/>
<path fill="#A215FA" opacity="1.000000" stroke="none" 
	d="
M1452.147949,562.723755 
	C1468.059082,566.457214 1473.952148,578.421448 1477.886475,592.079773 
	C1477.932373,592.239014 1477.964111,592.406250 1477.973999,592.571533 
	C1478.313721,598.200073 1479.924072,604.134705 1478.664062,609.379883 
	C1477.093750,615.917542 1469.246338,613.749023 1464.572632,616.330200 
	C1463.050781,617.170776 1461.201538,617.418701 1458.989502,618.094177 
	C1464.207275,606.373535 1462.902954,595.583862 1456.996948,585.243591 
	C1454.792725,581.384644 1451.444824,578.972107 1446.628174,580.062561 
	C1442.168701,581.072266 1439.453491,584.752563 1439.221069,590.099121 
	C1439.149414,591.748108 1439.310547,593.434631 1439.586914,595.066345 
	C1440.476074,600.316528 1441.586182,605.531067 1442.398682,610.792114 
	C1444.472412,624.217468 1440.456055,633.707153 1430.575806,639.080811 
	C1418.615479,645.585815 1405.848877,644.607361 1396.337280,635.483765 
	C1383.116211,622.802063 1379.392700,606.576172 1380.698364,588.875916 
	C1380.790039,587.633728 1381.763428,585.779602 1382.777832,585.392822 
	C1389.098633,582.982727 1395.547974,580.909912 1403.364868,578.244446 
	C1394.415649,591.324829 1395.891113,603.505249 1402.201538,615.516418 
	C1403.706177,618.380432 1405.989258,621.015869 1408.437012,623.159607 
	C1411.695679,626.013428 1415.579956,626.301025 1419.603760,624.246948 
	C1423.463379,622.276611 1424.735352,618.898071 1424.193481,615.078369 
	C1423.191162,608.011475 1421.481079,601.046448 1420.427368,593.984985 
	C1417.566040,574.809082 1432.390503,560.047424 1452.147949,562.723755 
z"/>
<path fill="#A315FA" opacity="1.000000" stroke="none" 
	d="
M1322.389282,1091.606201 
	C1305.965454,1076.287598 1289.796387,1061.213257 1272.529053,1045.115112 
	C1280.421509,1037.182129 1287.338745,1028.770874 1295.687378,1022.170044 
	C1309.154907,1011.522095 1323.626099,1013.064331 1337.341431,1025.068970 
	C1350.218750,1036.340088 1353.478638,1051.523560 1345.654175,1065.936768 
	C1343.071045,1070.695190 1339.432007,1074.880371 1335.987549,1079.733765 
	C1341.770996,1085.140381 1347.810059,1090.786133 1354.149536,1096.712646 
	C1350.092407,1101.071411 1346.172729,1105.282593 1341.995483,1109.770508 
	C1335.293701,1103.564453 1328.968750,1097.707520 1322.389282,1091.606201 
M1325.629395,1067.318604 
	C1330.758789,1062.501709 1334.130493,1056.852417 1332.387451,1049.590332 
	C1330.338379,1041.053223 1324.516357,1035.617188 1316.186890,1033.649536 
	C1307.541016,1031.607300 1302.367065,1037.506226 1297.150757,1043.603638 
	C1305.797607,1051.650879 1314.298218,1059.589478 1322.863525,1067.457642 
	C1323.318970,1067.875977 1324.320435,1067.700073 1325.629395,1067.318604 
z"/>
<path fill="#A315FB" opacity="1.000000" stroke="none" 
	d="
M1295.687622,457.702576 
	C1316.158203,438.632660 1336.371338,419.804626 1356.996460,400.592773 
	C1368.854980,411.479797 1381.587769,421.395172 1384.390259,438.582947 
	C1384.758179,440.839630 1384.803833,443.275787 1384.383789,445.513428 
	C1381.734985,459.626038 1373.047363,469.209198 1360.227417,474.493256 
	C1347.997192,479.534271 1336.698486,475.847778 1326.791992,467.712036 
	C1324.244629,465.619965 1322.194580,462.922180 1319.480591,460.040192 
	C1313.101929,465.951050 1307.055664,471.553833 1300.551514,477.580963 
	C1296.495361,473.253571 1292.582031,469.078613 1288.348877,464.562408 
	C1290.873413,462.203033 1293.151855,460.073730 1295.687622,457.702576 
M1365.382812,446.578308 
	C1368.261597,438.127808 1365.949829,431.676727 1357.326294,424.755890 
	C1348.529419,432.947266 1339.687256,441.180878 1330.892700,449.370148 
	C1336.966187,458.733215 1346.376709,462.269928 1354.462646,457.472473 
	C1358.567627,455.037079 1361.561279,450.728912 1365.382812,446.578308 
z"/>
<path fill="#A315FA" opacity="1.000000" stroke="none" 
	d="
M1133.040527,361.058624 
	C1131.362549,361.394043 1129.604126,361.606384 1127.942139,362.126953 
	C1103.989380,369.629700 1075.791992,355.700989 1069.755981,332.582703 
	C1064.871826,313.875519 1068.972290,296.376984 1081.173096,281.463593 
	C1092.647339,267.438293 1108.476318,264.996002 1125.221436,268.456024 
	C1132.737671,270.009094 1139.852295,273.570343 1147.088867,276.375854 
	C1149.533203,277.323547 1150.391113,279.072449 1149.559937,281.956085 
	C1148.012451,287.324646 1146.957153,292.835052 1145.612427,298.652130 
	C1136.578125,288.473022 1125.296875,284.604462 1112.453125,284.923218 
	C1104.987305,285.108490 1098.947144,288.527557 1094.822021,294.732635 
	C1088.558472,304.154694 1086.476807,314.712982 1088.328979,325.749115 
	C1089.708862,333.970917 1094.708496,339.999695 1102.558838,343.127106 
	C1114.023193,347.694244 1125.475220,348.479248 1137.399170,341.302917 
	C1135.696533,348.203613 1134.197510,354.278625 1132.831543,360.752014 
	C1132.964600,361.150421 1133.004761,361.078888 1133.040527,361.058624 
z"/>
<path fill="#A315FA" opacity="1.000000" stroke="none" 
	d="
M831.299194,360.676910 
	C832.446289,364.174744 834.379150,362.773560 836.165955,361.999023 
	C845.457153,357.971405 854.745483,353.937317 864.563293,349.676147 
	C866.484314,354.662903 868.475525,359.831909 870.636108,365.440704 
	C854.452881,372.438568 838.639221,379.276642 822.454712,386.275024 
	C810.067322,357.588409 797.818359,329.222443 785.444946,300.568329 
	C801.146606,293.711548 816.617798,286.955414 832.426392,280.051971 
	C834.583679,285.547668 836.727417,291.008759 838.771667,296.216522 
	C828.882996,300.330780 819.234131,304.345215 808.937195,308.629333 
	C811.291931,314.151306 813.529846,319.399109 815.988464,325.164673 
	C823.939941,321.713043 831.632812,318.373657 839.679443,314.880737 
	C841.924255,319.882294 844.144836,324.829987 846.509460,330.098633 
	C838.403259,333.586884 830.681824,336.909515 822.627197,340.375549 
	C825.550659,347.230286 828.343323,353.778442 831.299194,360.676910 
z"/>
<path fill="#A315FB" opacity="1.000000" stroke="none" 
	d="
M600.143982,575.844666 
	C605.177734,577.528503 610.345764,578.911072 615.171997,581.060791 
	C616.844971,581.805908 618.365295,584.306274 618.779602,586.254822 
	C625.913269,619.813965 597.318604,648.275085 563.967407,640.784119 
	C552.603088,638.231628 542.162842,633.541504 533.945679,624.941895 
	C523.080261,613.570862 520.896423,599.904053 523.982910,585.049011 
	C525.997498,575.352844 529.462280,566.254211 535.719177,558.362732 
	C537.547363,556.056946 539.232361,555.410400 542.084595,556.574280 
	C547.151611,558.641785 552.394226,560.278748 558.005859,562.251343 
	C547.489075,569.148621 542.618103,579.182556 540.725769,590.765442 
	C539.135559,600.498657 542.284973,609.000732 550.789001,614.014343 
	C556.946838,617.644836 564.009399,620.652649 571.012146,621.754944 
	C587.368225,624.329590 598.145142,615.394836 601.914612,597.870483 
	C603.506287,590.471008 603.162292,583.340393 600.022949,576.112183 
	C600.181580,575.774170 600.143982,575.844666 600.143982,575.844666 
z"/>
<path fill="#A315FB" opacity="1.000000" stroke="none" 
	d="
M824.200073,1218.750854 
	C813.949768,1214.301758 804.048645,1210.006226 793.428345,1205.398560 
	C805.778320,1176.765259 818.047668,1148.318970 830.391602,1119.699707 
	C846.243652,1126.473267 861.757629,1133.102295 877.547607,1139.849365 
	C874.987427,1145.261108 872.524231,1150.467896 870.132751,1155.523193 
	C860.301941,1151.139038 850.666870,1146.842285 840.615051,1142.359619 
	C838.180115,1147.952271 835.946716,1153.082031 833.456848,1158.801025 
	C841.362610,1162.212646 849.062500,1165.535522 857.175659,1169.036743 
	C855.048950,1174.130493 852.963074,1179.126343 850.763367,1184.394775 
	C842.734924,1180.922974 835.037781,1177.594360 826.896851,1174.073853 
	C823.541504,1181.828979 820.333740,1189.242920 816.880981,1197.223145 
	C827.607666,1201.818970 838.083862,1206.307495 848.913879,1210.947510 
	C846.637085,1215.707886 844.224731,1220.751587 841.628235,1226.180542 
	C835.771423,1223.685425 830.160339,1221.294922 824.200073,1218.750854 
z"/>
<path fill="#A315FB" opacity="1.000000" stroke="none" 
	d="
M941.367310,346.386414 
	C923.003418,361.153076 897.024292,362.146820 881.111084,348.924469 
	C864.885681,335.442627 858.093140,305.676117 867.128784,286.657440 
	C874.558838,271.018311 888.507446,264.457489 904.385864,261.207916 
	C909.698853,260.120605 915.284119,260.308411 920.751465,260.051178 
	C924.133423,259.892090 926.241882,261.195221 926.831665,264.987701 
	C927.641418,270.195312 929.014404,275.315308 930.267578,281.026794 
	C919.028870,275.938782 908.349976,277.259583 897.888794,281.181549 
	C892.151062,283.332703 887.606323,287.264587 884.872803,292.972565 
	C878.778137,305.698822 884.978516,327.630585 896.288879,335.908661 
	C905.731262,342.819427 929.258240,340.760468 941.509888,323.428833 
	C942.783020,329.082489 944.410217,334.305176 944.930603,339.635895 
	C945.130005,341.678070 942.801147,343.967041 941.367310,346.386414 
z"/>
<path fill="#A315FB" opacity="1.000000" stroke="none" 
	d="
M1073.534180,1157.551758 
	C1087.085571,1143.753296 1103.649048,1139.362427 1122.045898,1140.114014 
	C1124.915771,1140.231445 1126.488647,1141.459595 1127.031738,1144.509033 
	C1127.988525,1149.880981 1129.368896,1155.177612 1130.735962,1161.232544 
	C1122.173584,1156.693848 1113.675537,1157.328979 1105.190063,1159.087402 
	C1096.324585,1160.924805 1088.894409,1165.040405 1085.006958,1173.729492 
	C1079.099731,1186.933350 1086.084106,1209.063599 1097.843628,1216.634644 
	C1108.029907,1223.193115 1131.766968,1219.396973 1141.880981,1203.233887 
	C1143.207275,1208.790771 1144.759033,1214.076172 1145.586060,1219.472656 
	C1145.845093,1221.162842 1144.600586,1223.587891 1143.286621,1224.939819 
	C1120.678101,1248.198242 1081.438477,1240.943848 1068.848267,1211.230957 
	C1064.550171,1201.087280 1062.770142,1190.494385 1063.970947,1179.502686 
	C1064.861694,1171.350342 1067.974854,1164.092651 1073.534180,1157.551758 
z"/>
<path fill="#A315FB" opacity="1.000000" stroke="none" 
	d="
M569.819641,903.754639 
	C554.402649,917.134521 558.097595,943.757996 576.469421,953.903931 
	C577.481506,954.462830 578.547363,954.924133 580.279907,955.767700 
	C574.312622,957.915588 568.950134,960.030396 563.449036,961.684265 
	C562.213623,962.055725 560.248718,961.152466 559.033081,960.267883 
	C533.550232,941.723999 535.106995,901.232361 562.067505,885.214722 
	C574.836182,877.628662 588.625427,873.822327 603.639709,876.877808 
	C610.828125,878.340637 617.194824,881.573914 622.312622,886.807251 
	C633.864929,898.620239 639.632812,912.934387 640.195923,929.423889 
	C640.288818,932.143921 639.486267,933.628479 636.704346,934.465149 
	C631.358337,936.072998 626.136475,938.093994 620.389832,940.109619 
	C624.244324,928.782104 621.965881,918.566956 617.157715,908.873047 
	C611.658813,897.786438 601.348877,892.723572 589.344360,895.745544 
	C582.699463,897.418396 576.505005,900.880493 569.819641,903.754639 
z"/>
<path fill="#A215FA" opacity="1.000000" stroke="none" 
	d="
M966.819092,270.723572 
	C959.732239,271.109375 953.126770,271.503387 945.830811,271.938599 
	C945.539307,267.139374 945.201538,261.576538 944.853821,255.851379 
	C966.888733,254.781509 988.581787,253.728241 1010.777344,252.650574 
	C1010.988159,257.293457 1011.238831,262.812897 1011.528748,269.196716 
	C1003.867493,269.196716 996.480530,269.196716 988.425232,269.196716 
	C989.674561,295.619507 990.882629,321.170654 992.119019,347.319672 
	C985.556519,347.319672 979.325439,347.319672 972.580566,347.319672 
	C972.087646,337.810791 971.556335,328.027618 971.078979,318.241760 
	C970.364624,303.596008 969.724304,288.946442 968.929749,274.305145 
	C968.863708,273.088165 967.865601,271.921753 966.819092,270.723572 
z"/>
<path fill="#A115F8" opacity="1.000000" stroke="none" 
	d="
M557.183716,754.877075 
	C560.722900,759.510498 561.072571,764.048401 557.900391,768.540161 
	C555.247131,772.296997 551.369751,773.760620 546.932190,772.792297 
	C542.295349,771.780396 539.320679,768.719116 538.514526,763.973572 
	C537.705750,759.212097 539.547302,755.386658 543.642029,752.954407 
	C548.371338,750.145203 552.878296,750.967957 557.183716,754.877075 
z"/>
<path fill="#A215FA" opacity="1.000000" stroke="none" 
	d="
M1456.363770,770.478149 
	C1451.803589,773.730103 1447.419556,773.990173 1443.109009,770.954285 
	C1439.134521,768.155090 1437.895996,764.126770 1438.974609,759.523438 
	C1440.024170,755.044800 1443.091309,752.364685 1447.579590,751.570923 
	C1452.327148,750.731262 1456.082397,752.579529 1458.645386,756.582764 
	C1461.345703,760.800537 1460.577393,765.471497 1456.363770,770.478149 
z"/>
<path fill="#A315FB" opacity="1.000000" stroke="none" 
	d="
M600.197998,575.737793 
	C600.122437,575.712524 600.030396,575.723633 600.041199,575.789734 
	C600.143982,575.844666 600.181580,575.774170 600.197998,575.737793 
z"/>
<path fill="#111111" opacity="1.000000" stroke="none" 
	d="
M1235.619385,1122.347290 
	C1235.592041,1122.138916 1235.746704,1121.764771 1236.026855,1121.613770 
	C1236.152466,1121.836670 1235.801392,1122.181641 1235.619385,1122.347290 
z"/>
<path fill="#121113" opacity="1.000000" stroke="none" 
	d="
M644.528198,1021.634888 
	C638.841309,1023.901123 633.605774,1026.982178 628.037598,1027.800659 
	C616.288452,1029.527588 607.881409,1023.655823 602.339539,1013.579773 
	C596.505859,1002.973206 596.738037,992.425293 604.123535,982.672974 
	C610.113708,974.763062 618.479614,970.287537 628.264343,969.033081 
	C641.394226,967.349792 651.224365,972.803589 656.895508,984.330933 
	C662.183350,995.078918 660.162170,1006.907593 651.321228,1015.989075 
	C649.362549,1018.000977 647.003540,1019.623169 644.528198,1021.634888 
z"/>
<path fill="#121113" opacity="1.000000" stroke="none" 
	d="
M619.429077,488.352539 
	C623.944214,490.914093 628.466858,492.855255 632.183533,495.810059 
	C643.692688,504.960052 646.172668,517.759583 639.295410,530.004822 
	C631.944336,543.093750 618.503357,548.542175 604.974670,543.917114 
	C592.040100,539.495178 581.755981,527.442322 581.003662,515.823608 
	C579.688416,495.509430 598.037109,482.191589 619.429077,488.352539 
z"/>
<path fill="#111111" opacity="1.000000" stroke="none" 
	d="
M768.525208,371.631409 
	C769.107300,371.753143 769.370850,372.144562 769.634460,372.535950 
	C769.094543,372.633606 768.554565,372.731232 767.795410,372.638458 
	C767.786377,372.265747 767.996582,372.083435 768.525208,371.631409 
z"/>
<path fill="#111111" opacity="1.000000" stroke="none" 
	d="
M693.748291,1094.682373 
	C693.473999,1094.676514 693.410095,1094.463135 693.346191,1094.249878 
	C693.550354,1094.324951 693.754456,1094.400024 693.748291,1094.682373 
z"/>
<path fill="#151118" opacity="1.000000" stroke="none" 
	d="
M1187.297119,1171.315186 
	C1182.458130,1173.497681 1177.956787,1175.514038 1172.691528,1177.872803 
	C1171.352539,1166.743530 1170.086670,1156.221436 1168.820801,1145.699463 
	C1169.143188,1145.550049 1169.465454,1145.400635 1169.787842,1145.251221 
	C1176.869507,1153.024292 1183.951172,1160.797485 1191.488281,1169.070679 
	C1190.010986,1169.867432 1188.822876,1170.508179 1187.297119,1171.315186 
z"/>
<path fill="#151118" opacity="1.000000" stroke="none" 
	d="
M1178.694458,348.379822 
	C1176.732544,347.449615 1175.093506,346.692078 1173.022583,345.734985 
	C1180.419189,337.467468 1187.531860,329.517487 1194.644531,321.567474 
	C1194.950806,321.699738 1195.257202,321.831970 1195.563477,321.964203 
	C1194.407593,332.543060 1193.251831,343.121887 1192.028198,354.320709 
	C1187.360596,352.251434 1183.188965,350.401978 1178.694458,348.379822 
z"/>
<path fill="#131115" opacity="1.000000" stroke="none" 
	d="
M1325.348511,1067.559814 
	C1324.320435,1067.700073 1323.318970,1067.875977 1322.863525,1067.457642 
	C1314.298218,1059.589478 1305.797607,1051.650879 1297.150757,1043.603638 
	C1302.367065,1037.506226 1307.541016,1031.607300 1316.186890,1033.649536 
	C1324.516357,1035.617188 1330.338379,1041.053223 1332.387451,1049.590332 
	C1334.130493,1056.852417 1330.758789,1062.501709 1325.348511,1067.559814 
z"/>
<path fill="#131115" opacity="1.000000" stroke="none" 
	d="
M1365.219971,446.922852 
	C1361.561279,450.728912 1358.567627,455.037079 1354.462646,457.472473 
	C1346.376709,462.269928 1336.966187,458.733215 1330.892700,449.370148 
	C1339.687256,441.180878 1348.529419,432.947266 1357.326294,424.755890 
	C1365.949829,431.676727 1368.261597,438.127808 1365.219971,446.922852 
z"/>
</svg>