<svg width="120" height="151" viewBox="0 0 120 151" fill="none" xmlns="http://www.w3.org/2000/svg">
<g clip-path="url(#clip0_108_2)">
<rect y="15" width="120" height="120" rx="15" fill="#D9D9D9"/>
<path d="M82.4972 65.5H75.892C75.5014 63.6001 74.8178 61.9311 73.8413 60.4929C72.8825 59.0547 71.7106 57.8473 70.3256 56.8707C68.9585 55.8764 67.4403 55.1307 65.7713 54.6335C64.1023 54.1364 62.3622 53.8878 60.5511 53.8878C57.2486 53.8878 54.2567 54.7223 51.5756 56.3913C48.9123 58.0604 46.7905 60.5195 45.2102 63.7688C43.6477 67.0181 42.8665 71.0043 42.8665 75.7273C42.8665 80.4503 43.6477 84.4364 45.2102 87.6857C46.7905 90.935 48.9123 93.3942 51.5756 95.0632C54.2567 96.7322 57.2486 97.5668 60.5511 97.5668C62.3622 97.5668 64.1023 97.3182 65.7713 96.821C67.4403 96.3239 68.9585 95.587 70.3256 94.6104C71.7106 93.6161 72.8825 92.3999 73.8413 90.9616C74.8178 89.5057 75.5014 87.8366 75.892 85.9545H82.4972C82 88.7422 81.0945 91.2369 79.7805 93.4386C78.4666 95.6403 76.8331 97.5135 74.88 99.0582C72.9268 100.585 70.734 101.748 68.3015 102.547C65.8867 103.346 63.3033 103.746 60.5511 103.746C55.8991 103.746 51.7621 102.609 48.1399 100.337C44.5178 98.0639 41.668 94.8324 39.5906 90.642C37.5131 86.4517 36.4744 81.4801 36.4744 75.7273C36.4744 69.9744 37.5131 65.0028 39.5906 60.8125C41.668 56.6222 44.5178 53.3906 48.1399 51.1179C51.7621 48.8452 55.8991 47.7088 60.5511 47.7088C63.3033 47.7088 65.8867 48.1083 68.3015 48.9073C70.734 49.7063 72.9268 50.8782 74.88 52.4229C76.8331 53.9499 78.4666 55.8143 79.7805 58.016C81.0945 60.1999 82 62.6946 82.4972 65.5Z" fill="#664A93"/>
<path d="M98.1619 58.5H87.1534C86.5024 55.3336 85.363 52.5518 83.7354 50.1548C82.1374 47.7578 80.1843 45.7455 77.8761 44.1179C75.5974 42.4607 73.0672 41.2178 70.2855 40.3892C67.5038 39.5606 64.6037 39.1463 61.5852 39.1463C56.081 39.1463 51.0946 40.5372 46.6261 43.3189C42.1871 46.1006 38.6508 50.1992 36.017 55.6147C33.4129 61.0302 32.1108 67.6738 32.1108 75.5455C32.1108 83.4171 33.4129 90.0607 36.017 95.4762C38.6508 100.892 42.1871 104.99 46.6261 107.772C51.0946 110.554 56.081 111.945 61.5852 111.945C64.6037 111.945 67.5038 111.53 70.2855 110.702C73.0672 109.873 75.5974 108.645 77.8761 107.017C80.1843 105.36 82.1374 103.333 83.7354 100.936C85.363 98.5095 86.5024 95.7277 87.1534 92.5909H98.1619C97.3333 97.237 95.8241 101.395 93.6342 105.064C91.4444 108.734 88.7218 111.856 85.4666 114.43C82.2114 116.975 78.5567 118.914 74.5025 120.245C70.4779 121.577 66.1721 122.243 61.5852 122.243C53.8319 122.243 46.9368 120.349 40.8999 116.561C34.8629 112.773 30.1133 107.387 26.6509 100.403C23.1886 93.4195 21.4574 85.1335 21.4574 75.5455C21.4574 65.9574 23.1886 57.6714 26.6509 50.6875C30.1133 43.7036 34.8629 38.3177 40.8999 34.5298C46.9368 30.7419 53.8319 28.848 61.5852 28.848C66.1721 28.848 70.4779 29.5138 74.5025 30.8455C78.5567 32.1772 82.2114 34.1303 85.4666 36.7049C88.7218 39.2499 91.4444 42.3571 93.6342 46.0266C95.8241 49.6665 97.3333 53.8243 98.1619 58.5Z" fill="#0D0B77"/>
</g>
<defs>
<clipPath id="clip0_108_2">
<rect width="120" height="151" fill="white"/>
</clipPath>
</defs>
</svg>
